<svg xmlns="http://www.w3.org/2000/svg" width="100" height="100"><g fill="#647261"><rect width="20" height="20"/><rect width="20" height="20" fill="#5f554b" x="20"/><rect width="20" height="20" fill="#835730" x="40"/><rect width="20" height="20" fill="#4f3617" x="60"/><rect width="20" height="20" fill="#63371e" x="80"/><rect width="20" height="20" fill="#6d574c" y="20"/><rect width="20" height="20" fill="#94591f" x="20" y="20"/><rect width="20" height="20" fill="#80310a" x="40" y="20"/><rect width="20" height="20" fill="#cf5000" x="60" y="20"/><rect width="20" height="20" fill="#f48337" x="80" y="20"/><rect width="20" height="20" fill="#bd7b2d" y="40"/><rect width="20" height="20" fill="#390708" x="20" y="40"/><rect width="20" height="20" fill="#cb4d34" x="40" y="40"/><rect width="20" height="20" fill="#290505" x="60" y="40"/><rect width="20" height="20" fill="#821100" x="80" y="40"/><rect width="20" height="20" fill="#a24c29" y="60"/><rect width="20" height="20" fill="#ec8c35" x="20" y="60"/><rect width="20" height="20" fill="#d77e3a" x="40" y="60"/><rect width="20" height="20" fill="#bf5035" x="60" y="60"/><rect width="20" height="20" fill="#f32005" x="80" y="60"/><rect width="20" height="20" fill="#2c0700" y="80"/><rect width="20" height="20" fill="#c26215" x="20" y="80"/><rect width="20" height="20" fill="#c84f1a" x="40" y="80"/><rect width="20" height="20" fill="#5b190d" x="60" y="80"/><rect width="20" height="20" fill="#d43a06" x="80" y="80"/></g></svg>